<?xml version="1.0" encoding="utf-8"?>
<!-- Generator: Adobe Illustrator 25.1.0, SVG Export Plug-In . SVG Version: 6.00 Build 0)  -->
<svg version="1.1" id="Ebene_1" xmlns="http://www.w3.org/2000/svg" xmlns:xlink="http://www.w3.org/1999/xlink" x="0px" y="0px"
	 viewBox="0 0 1366 768" style="enable-background:new 0 0 1366 768;" xml:space="preserve">
<style type="text/css">
	.st0{fill:#FFFFFF;}
</style>
<g>
	<polygon class="st0" points="678.16,336.09 538.17,196.1 493.71,240.56 633.88,380.72 	"/>
	<path class="st0" d="M487.18,145.11c-3.3-3.3-7.68-5.11-12.34-5.11s-9.04,1.82-12.34,5.11l-19.78,19.77c-6.8,6.8-6.8,17.88,0,24.68
		l43.92,43.92l44.46-44.46L487.18,145.11z"/>
	<polygon class="st0" points="854.63,601.47 914.67,613.99 899.2,557.13 891.79,549.73 891.79,549.73 879.1,537.03 772.7,430.63 
		728.42,475.26 	"/>
	<path class="st0" d="M918.88,152.49c-12.26-12.26-32.2-12.26-44.46,0L544.49,485.01l42.89,42.89l331.5-330.96
		c5.93-5.93,9.2-13.83,9.2-22.22S924.81,158.43,918.88,152.49z"/>
	<path class="st0" d="M482.8,556.66c-23.37,33.01-31.97,56.41-23.6,64.21c3.74,3.48,16.98,7.84,59.16-26.83
		c10.88-8.94,21.23-18.51,29.4-26.41l-41.44-41.44C499.06,534.94,490.64,545.58,482.8,556.66z"/>
	<path class="st0" d="M525,504.65c-0.56,0.61-5.39,5.86-12.23,13.86l42.11,42.11c6.18-6.18,10-10.26,10.09-10.35l0.12-0.13
		l15.2-15.18l-42.85-42.85L525,504.65z"/>
	<path d="M938.08,174.72c0-11.07-4.31-21.47-12.14-29.3c-16.16-16.16-42.44-16.15-58.61,0.01L685.2,328.99L494.25,138.04
		c-5.18-5.19-12.08-8.04-19.41-8.04s-14.23,2.86-19.41,8.04l-19.78,19.77c-10.7,10.7-10.7,28.12,0,38.82l191.18,191.18
		L517.84,497.67l-0.12,0.12c-0.23,0.25-23.4,25.29-43.04,53.03c-28.18,39.79-35.48,65.1-22.31,77.38c3.65,3.4,8.2,5.11,13.7,5.11
		c13.62,0,33.02-10.47,58.69-31.58c24.38-20.05,46.11-43.12,47.45-44.56l112.07-111.88l30.8,30.8L848.61,609.6l1.05,1.06
		l78.94,16.45l-20.46-75.17l-21.92-21.92l-0.71-0.71L779.74,423.53l0,0l-36.81-36.81l183.01-182.71
		C933.77,196.19,938.08,185.78,938.08,174.72z M442.72,189.57c-6.8-6.8-6.8-17.88,0-24.68l19.78-19.77c3.3-3.3,7.68-5.11,12.34-5.11
		s9.04,1.82,12.34,5.11l43.92,43.92l-44.46,44.46L442.72,189.57z M493.71,240.56l44.46-44.46l139.99,139.99l-44.28,44.63
		L493.71,240.56z M518.35,594.05c-42.18,34.67-55.42,30.31-59.16,26.83c-8.37-7.8,0.23-31.21,23.6-64.21
		c7.84-11.08,16.27-21.72,23.51-30.47l41.44,41.44C539.58,575.54,529.23,585.1,518.35,594.05z M565.1,550.14l-0.12,0.13
		c-0.09,0.1-3.91,4.18-10.09,10.35l-42.11-42.11c6.84-8,11.67-13.25,12.23-13.86l12.44-12.54l42.85,42.85L565.1,550.14z
		 M772.7,430.63l106.4,106.4l12.69,12.69l0,0l7.4,7.4l15.48,56.85l-60.05-12.51L728.42,475.26L772.7,430.63z M587.38,527.9
		l-42.89-42.89l329.93-332.52c12.26-12.26,32.2-12.26,44.46,0c5.94,5.94,9.21,13.83,9.21,22.23s-3.27,16.29-9.2,22.22L587.38,527.9z
		"/>
</g>
</svg>
