<?xml version="1.0" encoding="utf-8"?>
<!-- Generator: Adobe Illustrator 25.1.0, SVG Export Plug-In . SVG Version: 6.00 Build 0)  -->
<svg version="1.1" id="Ebene_1" xmlns="http://www.w3.org/2000/svg" xmlns:xlink="http://www.w3.org/1999/xlink" x="0px" y="0px"
	 viewBox="0 0 1366 768" style="enable-background:new 0 0 1366 768;" xml:space="preserve">
<style type="text/css">
	.st0{fill:#663399;}
	.st1{fill:#663399;}
</style>
<g>
	<rect x="450.14" y="348.5" class="st0" width="503" height="62.87"/>
	<polygon class="st0" points="963.14,409.68 1011.87,377.76 963.14,349.89 	"/>
	<path class="st0" d="M365.69,353.61c-3.3,3.3-5.11,7.68-5.11,12.34l0,27.97c0,9.62,7.83,17.45,17.45,17.45l62.11,0l0-62.87
		l-62.11,0C373.37,348.5,368.99,350.31,365.69,353.61z"/>
	<path class="st1" d="M378.03,338.5c-7.33,0-14.23,2.86-19.41,8.04c-5.18,5.18-8.04,12.08-8.04,19.41l0,27.97c0,15.14,12.32,27.45,27.45,27.45
		l584.02,0l1.49,0l67.45-44.19l-67.62-38.68L378.03,338.5z M440.14,411.37l-62.11,0c-9.62,0-17.45-7.83-17.45-17.45l0-27.97
		c0-4.66,1.82-9.04,5.11-12.34c3.3-3.3,7.68-5.11,12.34-5.11l62.11,0L440.14,411.37z M953.14,411.37l-503,0l0-62.87l503,0
		L953.14,411.37z M963.14,409.68l0-59.79l48.72,27.87L963.14,409.68z"/>
	<path class="st0" d="M984.22,205.91c8.39,0,16.29-3.27,22.22-9.21c5.94-5.94,9.21-13.83,9.21-22.23c0-17.33-14.1-31.43-31.44-31.44
		l-467.82,1.83l0.27,60.65L984.22,205.91z"/>
	<path class="st0" d="M420.21,203.49c14.02,1.37,28.1,1.92,39.47,2.11l0-58.61c-11.31,1.06-24.79,2.63-38.18,4.92
		c-39.86,6.82-62.5,17.28-62.1,28.72C359.58,185.74,365.87,198.19,420.21,203.49z"/>
	<path class="st1" d="M419.32,213.45c31.42,3.06,63.1,2.11,65.06,2.05l499.83,0.41c11.07,0,21.47-4.31,29.3-12.14s12.14-18.23,12.14-29.3
		c0-22.85-18.59-41.43-41.45-41.43L488,134.98l-0.17,0c-0.34,0.01-34.43,1.34-67.93,7.06c-48.06,8.21-71.12,20.95-70.49,38.94
		c0.18,4.98,2.19,9.41,6.08,13.3C365.12,203.91,386.24,210.23,419.32,213.45z M984.21,143.04c17.33,0,31.43,14.1,31.44,31.44
		c0,8.4-3.27,16.29-9.21,22.23c-5.94,5.94-13.83,9.21-22.22,9.21l-467.56-0.38l-0.27-60.65L984.21,143.04z M421.5,151.92
		c13.38-2.29,26.86-3.86,38.18-4.92l0,58.61c-11.37-0.19-25.45-0.74-39.47-2.11c-54.34-5.3-60.63-17.75-60.81-22.86
		C359,169.2,381.64,158.73,421.5,151.92z"/>
	<path class="st0" d="M984.21,553.04l-467.82,1.83l0.27,60.65l467.55,0.38c8.39,0,16.29-3.27,22.22-9.21
		c5.94-5.94,9.21-13.83,9.21-22.23C1015.65,567.14,1001.55,553.04,984.21,553.04z"/>
	<path class="st0" d="M359.4,590.63c0.18,5.1,6.46,17.55,60.81,22.86c14.02,1.37,28.1,1.92,39.47,2.11l0-58.61
		c-11.31,1.06-24.79,2.63-38.18,4.92C381.64,568.73,359,579.2,359.4,590.63z"/>
	<path class="st1" d="M984.2,543.04L488,544.98l-0.17,0c-0.34,0.01-34.43,1.34-67.93,7.06c-48.06,8.21-71.12,20.95-70.49,38.94
		c0.18,4.98,2.19,9.41,6.08,13.3c9.63,9.63,30.75,15.95,63.83,19.17c31.42,3.06,63.1,2.11,65.06,2.05l499.83,0.41
		c11.07,0,21.47-4.31,29.3-12.14s12.14-18.23,12.14-29.3C1025.65,561.63,1007.06,543.04,984.2,543.04z M459.68,615.6
		c-11.37-0.19-25.45-0.74-39.47-2.11c-54.34-5.3-60.63-17.75-60.81-22.86c-0.4-11.43,22.23-21.9,62.1-28.72
		c13.38-2.29,26.86-3.86,38.18-4.92L459.68,615.6z M1006.44,606.7c-5.94,5.94-13.83,9.21-22.22,9.21l-467.55-0.38l-0.27-60.65
		l467.82-1.83c17.33,0,31.43,14.1,31.44,31.44C1015.65,592.87,1012.38,600.77,1006.44,606.7z"/>
</g>
</svg>
